inDegrees=no
num_controls=7
num_derivatives=13
num_iterations=110
num_multipliers=7
num_parameters=0
num_slacks=7
num_states=26
objective=3.979085
objective_accelerations=0.556516
objective_balance=0.089747
objective_effort=0.463463
objective_height=2.827666
objective_ligament=0.041693
solver_duration=1193.149439
status=Solve_Succeeded
success=true
DataType=double
version=3
OpenSimVersion=4.4-2022-07-23-0e9fedc
endheader
time	/jointset/ground_pelvis/pelvis_tilt/value	/jointset/ground_pelvis/pelvis_tx/value	/jointset/ground_pelvis/pelvis_ty/value	/jointset/hip_l/hip_flexion_l/value	/jointset/hip_l/hip_adduction_l/value	/jointset/hip_l/hip_rotation_l/value	/jointset/back/lumbar_extension/value	/jointset/patellofemoral_l/patellar_flexion_l/value	/jointset/knee_l/knee_flexion_l/value	/jointset/knee_l/knee_adduction_l/value	/jointset/knee_l/knee_rotation_l/value	/jointset/ankle_l/ankle_angle_l/value	/jointset/subtalar_l/subtalar_angle_l/value	/jointset/ground_pelvis/pelvis_tilt/speed	/jointset/ground_pelvis/pelvis_tx/speed	/jointset/ground_pelvis/pelvis_ty/speed	/jointset/hip_l/hip_flexion_l/speed	/jointset/hip_l/hip_adduction_l/speed	/jointset/hip_l/hip_rotation_l/speed	/jointset/back/lumbar_extension/speed	/jointset/patellofemoral_l/patellar_flexion_l/speed	/jointset/knee_l/knee_flexion_l/speed	/jointset/knee_l/knee_adduction_l/speed	/jointset/knee_l/knee_rotation_l/speed	/jointset/ankle_l/ankle_angle_l/speed	/jointset/subtalar_l/subtalar_angle_l/speed	/forceset/tau_hip_flexion_l	/forceset/tau_hip_adduction_l	/forceset/tau_hip_rotation_l	/forceset/tau_knee_flexion_l	/forceset/tau_ankle_angle_l	/forceset/tau_subtalar_angle_l	/forceset/tau_lumbar_extension	lambda_cid13_p0	lambda_cid13_p1	lambda_cid13_p2	lambda_cid13_p3	lambda_cid13_p4	lambda_cid13_p5	lambda_cid14_p0	/jointset/ground_pelvis/pelvis_tilt/accel	/jointset/ground_pelvis/pelvis_tx/accel	/jointset/ground_pelvis/pelvis_ty/accel	/jointset/hip_l/hip_flexion_l/accel	/jointset/hip_l/hip_adduction_l/accel	/jointset/hip_l/hip_rotation_l/accel	/jointset/back/lumbar_extension/accel	/jointset/patellofemoral_l/patellar_flexion_l/accel	/jointset/knee_l/knee_flexion_l/accel	/jointset/knee_l/knee_adduction_l/accel	/jointset/knee_l/knee_rotation_l/accel	/jointset/ankle_l/ankle_angle_l/accel	/jointset/subtalar_l/subtalar_angle_l/accel	gamma_cid13_p0	gamma_cid13_p1	gamma_cid13_p2	gamma_cid13_p3	gamma_cid13_p4	gamma_cid13_p5	gamma_cid14_p0
1	-0.4278306214293399	-0.02121680838099216	0.4600611086481725	2.094395025280035	-0.2404857007064838	0.0710176449013798	-0.436331877549704	1.855496405304153	1.855496405304119	0.1369913991888507	0.1745148306582284	0.4363322260934572	0.1403365920508204	-0.006162532736486694	0.002028132240857383	-0.006796596114785662	0.02215001983784736	-0.0007997150876399115	-0.008365668738782878	-2.589080051689158e-05	0.01840625150383491	0.0184062515038343	0.01284257523258345	-6.336095800429196e-05	0.00333039809755857	0.0002280817074361201	-0.3334847589779152	0.01185937543808524	-0.04648997421562762	-0.4478427455970377	-0.008180957539023164	0.01927265923966237	0.2997232923711075	-51.59145362494694	8.69168297320107	-10.95859945910702	25.76920522209279	-765.1311641663663	-48.18451553196393	-0.03391363940518113	0.04671985104380479	-0.4418190296833155	2.528768819312568	-6.872500388757608	-0.08320527321073461	-0.8457342614468574	0.01406911549430606	-7.192816093149683	-7.192816093149797	-1.262802841974612	0.01130713685999669	-0.6881844821923345	-0.3897929741276519	-6.880262228509372e-09	2.170213932099247e-08	2.533557984611695e-08	6.926061406331439e-09	6.304476894742248e-09	7.791901259186217e-08	-6.050854105434233e-09
1.01	-0.4278897862699947	-0.02121861152654244	0.4601196527822141	2.094272470372486	-0.2404973024799703	0.07089571894408993	-0.4363314433878694	1.855320769209051	1.855320769209046	0.1370532412735657	0.1745142718371474	0.4363313898251431	0.1403203549126029	-0.005648682421270639	-0.00238690300950478	0.01851307040684924	-0.04669306209280193	-0.001520466546039217	-0.01602062480181196	0.0001030537949111311	-0.05355198509716984	-0.05355198509716792	-0.00047741437165401	-4.549164925571816e-05	-0.003506502682642687	-0.003478744317163364	-0.3337870792863394	0.01190776486419844	-0.04648961123898297	-0.4478133495604828	-0.008396490313003302	0.019317001142848	0.2999582778084086	-51.67173349897902	8.683644893340121	-10.95407775971974	25.81655183949055	-765.3604762087084	-48.18682290073274	-0.0339176630576603	0.05698230980996506	-0.4410681702141829	2.533210330067087	-6.895019660405837	-0.06647404744146303	-0.7255375993568709	0.01085672594234859	-7.200107073682818	-7.200107073682402	-1.3670779794647	-0.002514344001263915	-0.6827717061274675	-0.3615956679538383	6.83633212705913e-09	-5.271945284732459e-08	-7.131632232823475e-08	-5.619936120142064e-09	-1.162474362936383e-08	-1.897498936535965e-07	1.204001654260735e-08
1.02	-0.4279431596698804	-0.02126450950409672	0.4604315225337675	2.093460523132594	-0.2405161045610955	0.07069721116205191	-0.4363300098612904	1.854424994821917	1.85442499482193	0.1369817872702929	0.1745139834747701	0.4362619187823617	0.1402669558638732	-0.005004244584091653	-0.006790834159942531	0.04386852738756941	-0.1157284466309489	-0.002239776615916454	-0.0236820336898772	0.0001739821653335708	-0.1256214069024493	-0.1256214069024441	-0.0138166423685485	-9.26921585146418e-06	-0.01039655667057356	-0.007204300394867484	-0.3340893995947278	0.01195615429031821	-0.04648924826230698	-0.4477839535239288	-0.008612023086988056	0.01936134304604229	0.3001932632457502	-51.7539741795357	8.671768538607429	-10.94416751163173	25.90586094215861	-765.6046102800884	-48.19885961874746	-0.03395924834792736	0.07283735543617414	-0.4395982096982124	2.537926911129653	-6.910960910257328	-0.08291699550641385	-0.8470248264541309	0.00246587049282957	-7.215053134004495	-7.215053134004463	-1.266650520505998	0.01497776179120385	-0.6988151237376984	-0.3935389847484799	2.426249018629637e-08	-1.268394953356871e-07	-1.683091337888099e-07	-2.88090308440184e-08	-2.993988043186072e-08	-4.561757357393676e-07	2.965334658096767e-08
1.03	-0.4279892474837162	-0.02135434400374345	0.4609970813037585	2.091957565862814	-0.2405420608378384	0.07042206793354626	-0.4363281562787806	1.85280815084387	1.85280815084389	0.1367769174387891	0.1745141080674737	0.436122961160975	0.1401761267223912	-0.004171962228512544	-0.01116941013729673	0.06924172686536219	-0.1848665157265641	-0.002947910097288336	-0.03134520641210829	0.0001859978630285678	-0.1977483426017658	-0.1977483426017627	-0.0271545828108256	3.239066908434294e-05	-0.0174351481593867	-0.01097213895711088	-0.3343968240533376	0.01206433247542122	-0.04635968352450608	-0.4474716134803341	-0.00890593459876423	0.01945255007736437	0.3004289539650229	-51.83885132759598	8.623489526460688	-10.9095946676396	25.99035689657921	-765.5813849119348	-48.25134500259129	-0.0340260187003775	0.09463395196478085	-0.4359995095143165	2.536781741477036	-6.915749865787724	-0.06418984009936192	-0.7257370649816393	-0.001041053738572708	-7.211666431197053	-7.211666431197415	-1.366926359547457	-0.001426969127185476	-0.7124098716290553	-0.3699345370079931	4.172650093638739e-08	-2.00956460786499e-07	-2.653054239155709e-07	-5.210672860052136e-08	-4.825895515556569e-08	-7.225888934969786e-07	4.726180375596391e-08
1.04	-0.4280257704187186	-0.0214877667067159	0.461816325123602	2.089763123910769	-0.2405749841125217	0.07007033826383596	-0.436326504633851	1.850470006980171	1.850470006980185	0.1364387560921988	0.1745146118448032	0.4359124118826612	0.140047313546277	-0.003091268819106629	-0.01550847482508558	0.09460553735803984	-0.2540253830851492	-0.003633176204523291	-0.03899932192930125	0.0001335946348543894	-0.2698813840331524	-0.2698813840331508	-0.04047494539146172	6.656771514054206e-05	-0.0247148880552346	-0.01480110732118069	-0.334704248511934	0.01217251066049268	-0.04623011878665456	-0.4471592734367425	-0.009199846110551324	0.01954375710862784	0.3006646446843083	-51.92589712110089	8.57134831088354	-10.86956054318724	26.11733826263335	-765.5759607805397	-48.31410994799992	-0.03412928176451709	0.1225195662015547	-0.4316959517851523	2.536049114106616	-6.915120562851306	-0.07834352067902166	-0.8452133854465225	-0.01041791468136602	-7.216274280418498	-7.216274280418358	-1.263134948177776	0.01348119401526597	-0.7470448051446787	-0.4057649451137594	5.729360396561668e-08	-2.72480953004741e-07	-3.59688945036431e-07	-7.114684290400134e-08	-6.49516856377953e-08	-9.740094354705062e-07	6.399910502364418e-08
1.05	-0.4280501154984623	-0.02166426391283629	0.4628890783295024	2.086877211717629	-0.2406146710101347	0.06964206892976531	-0.4363255935976603	1.84741071788619	1.847410717886204	0.1359675687626646	0.1745154388674263	0.4356277231645607	0.1398798136414146	-0.001723186799924437	-0.01977251624093954	0.1199357652303944	-0.3231408503396055	-0.004301751421701602	-0.04665172081988553	4.761138867813461e-05	-0.341956798810401	-0.3419567988103933	-0.05375525059793942	9.7558986604894e-05	-0.0322752328375586	-0.01871561153233042	-0.3348767951231877	0.01228138091154444	-0.04597075394189101	-0.4467696957817004	-0.009083184691498044	0.01964844344853308	0.300853699715204	-51.85666725377603	8.4770893553157	-10.81264494511705	25.98582337611149	-765.3641141000968	-48.43468381335607	-0.03424688353089306	0.1521485054631123	-0.4210089146161163	2.530092348207067	-6.9073180543781	-0.06068450043161513	-0.7248031035202047	-0.00783871294776755	-7.200245994095928	-7.200245994095177	-1.359340588473562	-0.002142981883797578	-0.76838848228464	-0.3866954210676469	7.280142862856905e-08	-3.439244304344653e-07	-4.539908171258566e-07	-9.00539077245744e-08	-8.159359286247882e-08	-1.224961458200781e-06	8.070918266922085e-08
1.06	-0.4280591405608686	-0.02188285166874147	0.4642148503590077	2.083300633202414	-0.2406609576555574	0.0691373656142563	-0.4363255724305029	1.843631260460892	1.843631260460906	0.1353638059247564	0.1745165655876383	0.4352658591651357	0.1396726882420496	-2.726535329414155e-05	-0.02392658478204578	0.145209302079009	-0.3921586474994795	-0.00495312576665004	-0.05428611821670131	-4.437919198520051e-05	-0.4139150502963619	-0.4139150502963485	-0.06699004706805135	0.0001265072342350669	-0.0401499443202146	-0.0227262062215598	-0.3350493417344778	0.01239025116257476	-0.04571138909711873	-0.4463801181266569	-0.008966523272441509	0.01975312978840376	0.3010427547460638	-51.78996300365343	8.378957974257682	-10.75018334447953	25.8982355126596	-765.1746177490099	-48.56632831384452	-0.03439863725104015	0.1880874516912271	-0.4097013768356329	2.524710909358606	-6.895586543934778	-0.07490334623302403	-0.8416130866928259	-0.01161938157865635	-7.192841622160944	-7.192841622160889	-1.254033200904594	0.01307258924838922	-0.8099181452111445	-0.4249830407296768	8.701879558343467e-08	-4.093894810346173e-07	-5.410339430424741e-07	-1.073729729819037e-07	-9.610999519232942e-08	-1.45101189555084e-06	9.587357212017816e-08
1.07	-0.4280494262073614	-0.02214234162418233	0.465792986934079	2.079034604796473	-0.2407136847820297	0.06855632758240521	-0.4363264524072937	1.839133001783992	1.839133001784005	0.1346280529600307	0.1745179572958838	0.4348234866081005	0.1394248847056466	0.002039024803718867	-0.02794423165429519	0.1704003741998097	-0.4610103715588069	-0.005588649937302979	-0.06191602938215937	-0.0001286200646539423	-0.4856989247993793	-0.485698924799367	-0.08014850205686985	0.000147225809478049	-0.04839362917032326	-0.02685528439967625	-0.3351016419052253	0.01251172485898986	-0.045325493192716	-0.4458445609135145	-0.008588573882767762	0.01988302866959658	0.3011738362196232	-51.61449468341598	8.239112302823461	-10.66768379691823	25.6386575879113	-764.7387764725338	-48.75243796347029	-0.03456555116883134	0.2262496022116777	-0.3937453099947151	2.513637246746649	-6.874450808904727	-0.05724358898969679	-0.7228244884086331	-0.006377024973058382	-7.165518726156233	-7.1655187261565	-1.344881337995469	-0.003926274055913836	-0.8419564778650458	-0.4098380844672552	1.011675211708488e-07	-4.745365302076643e-07	-6.276909654392614e-07	-1.246075701773584e-07	-1.105133387511783e-07	-1.675737780487058e-06	1.109557441139748e-07
